<?xml version="1.0" encoding="utf-8"?>
<!-- Generator: Adobe Illustrator 19.2.0, SVG Export Plug-In . SVG Version: 6.00 Build 0)  -->
<svg version="1.1" id="Layer_1" xmlns="http://www.w3.org/2000/svg" xmlns:xlink="http://www.w3.org/1999/xlink" x="0px" y="0px"
	 width="1280px" height="360px" viewBox="0 0 1280 360" enable-background="new 0 0 1280 360" xml:space="preserve">
<g id="Layer_1_1_">
	<g>
		<defs>
			<rect id="SVGID_1_" width="1280.1" height="360"/>
		</defs>
		<clipPath id="SVGID_2_">
			<use xlink:href="#SVGID_1_"  overflow="visible"/>
		</clipPath>
		<g id="Layer_3" clip-path="url(#SVGID_2_)">
			<g>
				<path fill="#659173" stroke="#659173" d="M1265.6-382.5V-173l60.7,477.9L1265.6-382.5z"/>
				<path fill="#CAE6DF" stroke="#CAE6DF" d="M-30.4-89.2L-6.5,5.7L103.8-5.4L-30.4-89.2z"/>
				<path fill="#B5DDD6" stroke="#B5DDD6" d="M279-134.5L203.8-8l159,42.7L279-134.5z"/>
				<path fill="#BDE1DD" stroke="#BDE1DD" d="M279-134.5l83.8,169.3l-2.6-194.9L279-134.5z"/>
				<path fill="#B1DBD3" stroke="#B1DBD3" d="M360.3-160.2l2.6,194.9l165-160.7L360.3-160.2z"/>
				<path fill="#9FD2C3" stroke="#9FD2C3" d="M527.8-126l-165,160.7l195.8-35L527.8-126z"/>
				<path fill="#9CD1BF" stroke="#9CD1BF" d="M527.8-126L558.6-0.3l93.2-71.8L527.8-126z"/>
				<path fill="#92CCB5" stroke="#92CCB5" d="M651.8-72.1L558.6-0.3l88.9-29.9L651.8-72.1z"/>
				<path fill="#8AC8AB" stroke="#8AC8AB" d="M651.8-72.1l-4.3,41.9L763.8,4.8L651.8-72.1z"/>
				<path fill="#86C5A7" stroke="#86C5A7" d="M651.8-72.1l112,76.9l14.5-85.5L651.8-72.1z"/>
				<path fill="#81BF9D" stroke="#81BF9D" d="M778.3-80.7L763.8,4.8l90.6-102.6L778.3-80.7z"/>
				<path fill="#75B68E" stroke="#75B68E" d="M854.4-97.8L763.8,4.8l149.6,38.5L854.4-97.8z"/>
				<path fill="#6CAC7F" stroke="#6CAC7F" d="M854.4-97.8l59,141.1l148.8-55.6L854.4-97.8z"/>
				<path fill="#619B6B" stroke="#619B6B" d="M1162.2-100.3l-100,88.1l82.1,30.8L1162.2-100.3z"/>
				<path fill="#61956C" stroke="#61956C" d="M1162.2-100.3l-18,118.8l128.2-59L1162.2-100.3z"/>
				<path fill="#4E8056" stroke="#4E8056" d="M1265.6-173l6.8,132.5l53.9,345.4L1265.6-173z"/>
				<path fill="#A8D1B5" stroke="#A8D1B5" d="M-6.5,5.7l-47,169.3l177-32.5L-6.5,5.7z"/>
				<path fill="#B2DAC6" stroke="#B2DAC6" d="M-6.5,5.7l129.9,136.8L103.8-5.4L-6.5,5.7z"/>
				<path fill="#ACD8C4" stroke="#ACD8C4" d="M103.8-5.4l19.7,147.9L203.8-8L103.8-5.4z"/>
				<path fill="#9FD1B8" stroke="#9FD1B8" d="M203.8-8l-80.4,150.5l130.8-41.9L203.8-8z"/>
				<path fill="#A2D3BF" stroke="#A2D3BF" d="M203.8-8l50.4,108.6l108.6-65.8L203.8-8z"/>
				<path fill="#94CBB1" stroke="#94CBB1" d="M362.8,34.7l-108.6,65.8L403,98L362.8,34.7z"/>
				<path fill="#93CCB1" stroke="#93CCB1" d="M362.8,34.7L403,98L558.6-0.3L362.8,34.7z"/>
				<path fill="#83C09F" stroke="#83C09F" d="M558.6-0.3L403,98l82.1,49.6L558.6-0.3z"/>
				<path fill="#79B990" stroke="#79B990" d="M558.6-0.3l-73.5,147.9l180.4,2.6L558.6-0.3z"/>
				<path fill="#80C19E" stroke="#80C19E" d="M558.6-0.3l106.9,150.5l-18-180.4L558.6-0.3z"/>
				<path fill="#79B992" stroke="#79B992" d="M647.5-30.2l18,180.4L763.8,4.8L647.5-30.2z"/>
				<path fill="#64A574" stroke="#64A574" d="M763.8,4.8l-98.3,145.3l89.8,30.8L763.8,4.8z"/>
				<path fill="#60A16E" stroke="#60A16E" d="M763.8,4.8l-8.5,176.1l112-75.2L763.8,4.8z"/>
				<path fill="#66A675" stroke="#66A675" d="M763.8,4.8l103.4,100.9l46.2-62.4L763.8,4.8z"/>
				<path fill="#55945A" stroke="#55945A" d="M913.4,43.3l-46.2,62.4l187.2,0.9L913.4,43.3z"/>
				<path fill="#59965D" stroke="#59965D" d="M913.4,43.3l141.1,63.3l7.7-118.8L913.4,43.3z"/>
				<path fill="#569157" stroke="#569157" d="M1062.1-12.3l-7.7,118.8l89.8-88L1062.1-12.3z"/>
				<path fill="#4C8446" stroke="#4C8446" d="M1144.2,18.5l-89.8,88l70.1,21.4L1144.2,18.5z"/>
				<path fill="#43793D" stroke="#43793D" d="M1144.2,18.5l-19.7,109.4l165,48.7L1144.2,18.5z"/>
				<path fill="#4D804F" stroke="#4D804F" d="M1144.2,18.5l145.3,158.2l-17.1-217.1L1144.2,18.5z"/>
				<path fill="#37672F" stroke="#37672F" d="M1272.5-40.5l17.1,217.1l36.8,128.2L1272.5-40.5z"/>
				<path fill="#8FB789" stroke="#8FB789" d="M-53.5,174.9l3.4,75.2L73,271.5L-53.5,174.9z"/>
				<path fill="#8EBC93" stroke="#8EBC93" d="M-53.5,174.9L73,271.5l50.4-129.1L-53.5,174.9z"/>
				<path fill="#83B284" stroke="#83B284" d="M123.4,142.5L73,271.5l144.5-0.9L123.4,142.5z"/>
				<path fill="#8ABB96" stroke="#8ABB96" d="M123.4,142.5l94,128.2l36.8-170.1L123.4,142.5z"/>
				<path fill="#79AD80" stroke="#79AD80" d="M254.2,100.6l-36.8,170.1l171.8,25.6L254.2,100.6z"/>
				<path fill="#7EB690" stroke="#7EB690" d="M254.2,100.6l135.1,195.8L403,98L254.2,100.6z"/>
				<path fill="#74AE82" stroke="#74AE82" d="M403,98l-13.7,198.3l95.8-148.8L403,98z"/>
				<path fill="#639C69" stroke="#639C69" d="M485.1,147.6l-95.8,148.8l147.9,11.1L485.1,147.6z"/>
				<path fill="#5F9961" stroke="#5F9961" d="M485.1,147.6l52.2,159.9l48.7-40.2L485.1,147.6z"/>
				<path fill="#62A270" stroke="#62A270" d="M485.1,147.6L586,267.3l79.5-117.1L485.1,147.6z"/>
				<path fill="#559153" stroke="#559153" d="M665.5,150.1L586,267.3l170.1,15.4L665.5,150.1z"/>
				<path fill="#539154" stroke="#539154" d="M665.5,150.1l90.6,132.5l-0.9-101.7L665.5,150.1z"/>
				<path fill="#477F3C" stroke="#477F3C" d="M755.2,180.9l0.9,101.7l144.5,12L755.2,180.9z"/>
				<path fill="#4C8746" stroke="#4C8746" d="M755.2,180.9l145.3,113.7l-33.3-188.9L755.2,180.9z"/>
				<path fill="#417E35" stroke="#417E35" d="M867.2,105.7l33.3,188.9l89.8-60.7L867.2,105.7z"/>
				<path fill="#488441" stroke="#488441" d="M867.2,105.7l123.1,128.2l64.1-127.4L867.2,105.7z"/>
				<path fill="#3B7328" stroke="#3B7328" d="M1054.5,106.5l-64.1,127.4l137.6,13.7L1054.5,106.5z"/>
				<path fill="#3D7530" stroke="#3D7530" d="M1054.5,106.5l73.5,141.1l-3.4-119.7L1054.5,106.5z"/>
				<path fill="#376A26" stroke="#376A26" d="M1124.6,127.9l3.4,119.7l161.6-71L1124.6,127.9z"/>
				<path fill="#2B571A" stroke="#2B571A" d="M1289.6,176.7l-161.6,71l198.3,57.3L1289.6,176.7z"/>
				<path fill="#88A783" stroke="#88A783" d="M-50.1,250.2L8,379.3l65-107.7L-50.1,250.2z"/>
				<path fill="#809E80" stroke="#809E80" d="M73,271.5L8,379.3l134.2-30.8L73,271.5z"/>
				<path fill="#7EA27E" stroke="#7EA27E" d="M73,271.5l69.3,76.9l75.2-77.8L73,271.5z"/>
				<path fill="#749579" stroke="#749579" d="M217.5,270.7l-75.2,77.8L285.9,428L217.5,270.7z"/>
				<path fill="#6C9075" stroke="#6C9075" d="M217.5,270.7L285.9,428l98.3-75.2L217.5,270.7z"/>
				<path fill="#6D9875" stroke="#6D9875" d="M217.5,270.7l166.7,82.1l5.1-56.4L217.5,270.7z"/>
				<path fill="#61906A" stroke="#61906A" d="M389.3,296.3l-5.1,56.4l153-45.3L389.3,296.3z"/>
				<path fill="#5B8466" stroke="#5B8466" d="M537.2,307.5l-153,45.3l96.6,77.8L537.2,307.5z"/>
				<path fill="#53805C" stroke="#53805C" d="M537.2,307.5l-56.4,123.1l151.3-89.8L537.2,307.5z"/>
				<path fill="#55895A" stroke="#55895A" d="M537.2,307.5l94.9,33.3L586,267.3L537.2,307.5z"/>
				<path fill="#4F8451" stroke="#4F8451" d="M586,267.3l46.2,73.5l123.9-58.1L586,267.3z"/>
				<path fill="#457845" stroke="#457845" d="M756.1,282.7l-123.9,58.1l159,12L756.1,282.7z"/>
				<path fill="#3F7238" stroke="#3F7238" d="M756.1,282.7l35.1,70.1l109.4-58.1L756.1,282.7z"/>
				<path fill="#36622D" stroke="#36622D" d="M900.6,294.6l-109.4,58.1L921.1,440L900.6,294.6z"/>
				<path fill="#2F5C25" stroke="#2F5C25" d="M900.6,294.6L921.1,440l70.1-86.3L900.6,294.6z"/>
				<path fill="#366825" stroke="#366825" d="M900.6,294.6l90.6,59l-0.9-119.7L900.6,294.6z"/>
				<path fill="#32641E" stroke="#32641E" d="M990.3,233.9l0.9,119.7l136.8-106L990.3,233.9z"/>
				<path fill="#2A5519" stroke="#2A5519" d="M1128,247.6l-136.8,106l110.3,30.8L1128,247.6z"/>
				<path fill="#244A15" stroke="#244A15" d="M1128,247.6l-26.5,136.8l153,14.5L1128,247.6z"/>
				<path fill="#234915" stroke="#234915" d="M1128,247.6l126.5,151.3l71.8-94L1128,247.6z"/>
				<path fill="#77917C" stroke="#77917C" d="M8,379.3L285.9,428l-143.6-79.5L8,379.3z"/>
				<path fill="#61826D" stroke="#61826D" d="M285.9,428l194.9,2.6l-96.6-77.8L285.9,428z"/>
				<path fill="#3D6741" stroke="#3D6741" d="M480.8,430.6l440.3,9.4l-129.9-87.2L480.8,430.6z"/>
				<path fill="#4A7852" stroke="#4A7852" d="M480.8,430.6l310.3-77.8l-159-12L480.8,430.6z"/>
				<path fill="#274E1A" stroke="#274E1A" d="M921.1,440l180.4-55.6l-110.3-30.8L921.1,440z"/>
			</g>
		</g>
	</g>
</g>
<rect height="100%" width="100%" style="fill: #6ffaff; mix-blend-mode: hue"></rect>
</svg>
